<svg width="296" height="296" viewBox="0 0 296 296" fill="none" xmlns="http://www.w3.org/2000/svg">
    <rect width="296" height="296" fill="white"/>
    <path fill-rule="evenodd" clip-rule="evenodd" d="M285.314 123.669C281.904 149.095 278.055 162.526 255.587 189.154C233.119 215.782 130.303 233.299 92.2926 233.299C54.2819 233.299 7.43798 203.988 10.3944 170.027C13.3509 136.067 28.7752 108.31 65.6938 104.893C103.423 101.401 136.564 117.571 173.605 108.899C205.629 101.401 215.427 72.8208 237.422 63.8041C281.904 45.5683 287.635 106.371 285.314 123.669Z" fill="#2EB4FF"/>
    <path d="M262.43 136.087C261.173 138.217 245.264 148.996 235.614 150.591C233.746 150.9 231.707 151.006 230.085 150.031C229.127 149.455 228.413 148.556 227.734 147.668C226.183 145.636 224.704 143.549 223.299 141.413C222.561 140.291 221.83 139.119 221.579 137.8C220.915 134.305 223.732 131.166 226.516 128.952C232.915 123.862 240.408 120.154 248.337 118.153C249.74 117.799 251.228 117.499 252.619 117.902C254.875 118.555 256.225 120.838 257.086 123.024C257.947 125.209 258.618 127.6 260.339 129.199C260.732 129.564 263.686 133.957 262.43 136.087Z" fill="white"/>
    <path fill-rule="evenodd" clip-rule="evenodd" d="M176.946 228.948C161.506 231.588 168.865 220.366 170.994 206.32C174.493 183.241 178.807 148.167 178.807 148.167C178.807 148.167 181.621 201.611 181.621 214.624C181.621 227.637 178.807 228.629 176.946 228.948Z" fill="white"/>
    <path d="M160.448 216.232C160.842 219.949 161.258 223.744 162.837 227.131C161.975 219.461 161.114 211.791 160.252 204.12C160.145 203.173 160.177 201.968 161.048 201.581C161.786 210.242 162.885 218.873 164.342 227.442C164.515 228.459 162.987 229.041 162.129 228.468C161.271 227.894 160.996 226.779 160.801 225.765C159.379 218.381 158.597 210.874 158.467 203.355C156.656 203.711 155.387 205.467 155.02 207.275C154.654 209.084 155.007 210.952 155.36 212.763C156.495 218.594 157.631 224.424 158.766 230.254C159.297 232.982 159.828 235.799 159.242 238.515C156.989 228.226 155.177 217.84 153.814 207.396C136.522 217.97 114.241 219.936 95.3644 212.554C91.2416 210.942 87.1473 208.805 84.4243 205.315C82.2793 202.566 81.1346 199.152 80.535 195.717C78.4053 183.517 82.7695 171.072 88.693 160.196C90.9406 156.069 93.5003 151.771 93.319 147.075C93.2565 145.458 92.9079 143.668 93.852 142.354C93.9857 142.597 87.6716 97.4318 90.2045 87.4413C96.3023 63.3899 116.111 60.1327 128.794 60.4293C137.304 60.6284 191.245 71.3482 199.038 85.926C209.281 105.085 207.107 121.193 205.287 131.815C204.746 134.978 178.814 147.934 178.807 148C177.325 161.782 167.376 191.812 159.032 202.881C159.504 207.331 159.976 211.782 160.448 216.232Z" fill="white"/>
    <path fill-rule="evenodd" clip-rule="evenodd" d="M35.9388 160.155C31.0757 158.213 25.2803 158.789 20.8959 161.649C20.4714 161.926 19.8612 161.617 19.651 161.157C19.4409 160.696 19.5195 160.16 19.627 159.666C21.0273 153.221 26.6056 148.291 32.8093 146.025C39.0129 143.759 45.7987 143.753 52.3932 144.14C53.0475 144.178 53.7314 144.229 54.2896 144.572C54.8478 144.916 55.2233 145.649 54.9451 146.241C52.351 151.765 50.3968 157.589 49.1341 163.558C48.9293 164.526 47.9264 165.168 46.9386 165.248C45.9508 165.329 44.983 164.965 44.0865 164.543C41.2929 163.228 38.8067 161.3 35.9388 160.155Z" fill="white"/>
    <path fill-rule="evenodd" clip-rule="evenodd" d="M185.563 64.9894C185.838 60.7759 185.52 56.5241 184.622 52.3983L184.603 52.3104C184.45 51.6128 184.293 50.8952 184.434 50.197C184.745 48.6529 186.46 47.7235 188.034 47.7559C189.609 47.7884 191.068 48.5401 192.461 49.2742C199.144 52.7946 205.947 56.4039 211.209 61.8232C211.374 66.2104 210.34 70.5399 209.319 74.8139L209.319 74.8141L209.223 75.2158C207.551 82.2258 205.998 89.2642 204.564 96.3268C206.587 105.484 207.477 114.89 207.207 124.264C207.131 126.905 206.9 129.721 205.288 131.815C204.116 133.336 202.362 134.274 200.662 135.167L182.451 144.734C175.416 148.429 166.944 149.295 159.306 147.1L175.696 146.246C176.142 146.223 176.62 146.189 176.969 145.911C177.481 145.505 177.521 144.757 177.518 144.103C177.436 127.959 177.35 111.751 174.996 95.7788C174.255 90.7464 173.228 85.592 170.401 81.3626C167.289 76.7049 162.328 73.6579 157.436 70.9294C148.66 66.0352 139.137 61.579 129.091 61.7955C120.798 61.9742 112.901 65.3416 105.637 69.3474C99.8693 72.5277 93.9916 76.569 91.7126 82.7484C90.4537 86.1619 90.4347 89.8915 90.4953 93.5293C90.7115 106.502 91.7484 119.462 93.5978 132.304C93.7992 133.703 93.6618 135.626 92.2713 135.877C90.4928 122.106 88.7121 108.31 88.234 94.4332C88.0954 90.4096 88.0855 86.2694 89.5229 82.5086C91.4601 77.44 95.7862 73.6809 100.27 70.6249C111.45 63.0051 125.081 58.3659 138.527 59.8722C143.065 60.3806 147.496 61.568 151.891 62.8072C165.639 66.6836 179.387 71.176 191.545 78.6741C192.6 79.3248 193.783 80.2886 193.586 81.5125C178.421 72.6531 161.372 67.64 144.515 62.7084C155.79 67.2494 167.989 72.6084 173.501 83.4419C175.833 88.0261 176.719 93.1937 177.413 98.29C179.477 113.442 180.108 128.789 179.294 144.06L198.948 134.508C200.64 133.685 202.416 132.791 203.437 131.211C204.394 129.732 204.535 127.887 204.629 126.128C205.149 116.414 205.085 106.669 204.436 96.9627C202.27 107.688 200.38 118.47 198.769 129.293C198.509 131.034 198.018 133.088 196.366 133.697C195.182 134.135 193.805 133.576 192.963 132.634C192.122 131.693 191.719 130.443 191.439 129.212C190.746 126.174 190.663 122.999 191.195 119.929C191.52 118.053 192.07 116.227 192.62 114.401L192.62 114.401L192.62 114.401L192.62 114.401L192.62 114.4L192.62 114.4L192.62 114.4L192.62 114.4L192.62 114.399L192.62 114.399L192.621 114.399L192.621 114.399L192.621 114.399L192.621 114.399L192.621 114.399C193.115 112.759 193.608 111.119 193.94 109.442C194.272 107.764 194.439 106.058 194.601 104.356C195.464 95.3015 196.195 86.2349 196.796 77.1597C196.88 75.8772 196.958 74.5545 196.538 73.3398C195.79 71.1795 193.614 69.814 191.415 69.1879C191.036 69.08 190.652 68.9883 190.267 68.8965L190.267 68.8965C189.371 68.6829 188.476 68.4695 187.659 68.0532C186.49 67.458 185.477 66.2976 185.563 64.9894ZM189.646 64.643C192.753 65.2987 195.79 66.289 198.687 67.5911C199.271 67.8532 199.884 68.1602 200.199 68.7166C200.457 69.1711 200.471 69.7184 200.479 70.2407C200.57 76.3745 200.59 82.5246 199.94 88.6246C199.551 92.2767 198.924 95.8969 198.297 99.5169L198.297 99.5171L198.296 99.5173L198.296 99.5175L198.296 99.5177L198.296 99.5179L198.296 99.5182L198.296 99.5184C198.098 100.664 197.899 101.81 197.708 102.957C196.891 107.864 196.212 112.794 195.671 117.739C195.693 118.124 195.651 118.513 195.548 118.885C195.507 119.278 195.467 119.671 195.428 120.064C195.01 124.217 194.705 128.511 195.997 132.48C196.66 132.359 196.915 131.561 197.041 130.899L208.982 67.9616C209.271 66.4367 209.56 64.8601 209.219 63.3459C208.622 60.6949 206.269 58.8516 204.001 57.3559C199.633 54.4767 194.985 52.0244 190.142 50.0455C189.739 54.8994 189.574 59.773 189.646 64.643ZM194.87 112.017C194.838 113.404 194.727 114.786 194.588 116.167C194.438 116.222 194.32 116.339 194.312 116.498C194.356 116.644 194.429 116.778 194.511 116.907C194.459 117.399 194.404 117.89 194.349 118.381C194.171 119.982 193.993 121.584 193.895 123.191C193.712 126.197 193.812 129.22 194.192 132.208C193.309 131.093 193.077 129.607 192.952 128.191C192.471 122.744 193.129 117.2 194.87 112.017ZM195.786 105.977C197.973 94.7532 198.96 83.2961 198.727 71.8635C198.71 71 198.663 70.0721 198.135 69.3888C197.748 68.888 197.157 68.5947 196.579 68.336C194.41 67.3645 192.13 66.6415 189.797 66.1858C189.122 66.054 188.129 66.1969 188.159 66.8842L196.543 70.3487C197.035 70.552 197.559 70.7818 197.837 71.2356C198.109 71.6806 198.083 72.2397 198.047 72.7604L195.786 105.977ZM187.984 48.9353C187.293 48.477 186.294 48.9494 185.909 49.6839C185.524 50.4183 185.583 51.2976 185.67 52.1223C185.798 53.3319 185.967 54.5422 186.135 55.7527L186.135 55.7535C186.603 59.1127 187.071 62.4732 186.674 65.8253C187.308 66.0429 188.015 65.5961 188.323 65.0004C188.631 64.4047 188.639 63.7051 188.64 63.0347L188.661 50.9464C188.662 50.2076 188.6 49.3435 187.984 48.9353ZM195.151 108.955C195.431 108.83 195.549 108.436 195.383 108.177C195.099 108.317 194.978 108.715 195.136 108.99L195.151 108.955ZM254.355 125.288C255.229 127.54 256.457 129.94 258.715 130.799C259.25 130.84 259.57 130.131 259.394 129.624C259.247 129.2 258.903 128.892 258.564 128.589C258.53 128.558 258.495 128.527 258.461 128.497L258.423 128.462L258.401 128.442L258.366 128.41C256.929 127.075 256.224 125.188 255.529 123.329L255.529 123.329L255.529 123.329C255.391 122.962 255.254 122.595 255.112 122.234C254.251 120.049 252.902 117.765 250.645 117.112C249.255 116.71 247.767 117.01 246.363 117.364C238.435 119.364 230.942 123.072 224.542 128.162C221.758 130.377 218.942 133.516 219.606 137.01C219.856 138.33 220.588 139.502 221.326 140.624C222.731 142.76 224.21 144.846 225.761 146.878C226.439 147.767 227.153 148.665 228.112 149.241C229.734 150.216 231.773 150.11 233.64 149.802C243.291 148.207 251.55 142.209 259.41 136.387C259.819 136.084 260.244 135.761 260.456 135.298C260.668 134.835 260.578 134.191 260.128 133.952C259.613 133.678 259.005 134.057 258.546 134.416C251.232 140.142 243.419 145.738 234.351 147.749C232.632 148.131 230.737 148.355 229.19 147.514C228.033 146.884 227.252 145.752 226.514 144.66L221.939 137.891C221.554 137.321 221.154 136.708 221.14 136.02C221.126 135.332 221.682 134.588 222.364 134.677C228.777 135.511 235.219 136.11 241.676 136.474C242.19 136.503 242.727 136.526 243.196 136.312C243.799 136.037 244.167 135.426 244.488 134.847C247.222 129.919 249.309 124.634 250.682 119.169C252.506 120.477 253.357 122.693 254.17 124.807L254.269 125.064L254.355 125.288ZM248.711 118.737C247.49 123.307 245.682 127.721 243.347 131.835C242.956 132.525 242.521 133.235 241.837 133.636C240.966 134.146 239.883 134.05 238.88 133.938L222.907 132.156C225.557 128.654 229.494 126.381 233.428 124.428C237.151 122.579 240.974 120.93 244.873 119.49C246.108 119.035 247.403 118.593 248.711 118.737ZM160.448 216.232C160.842 219.949 161.258 223.744 162.837 227.131L160.252 204.12C160.145 203.173 160.177 201.968 161.048 201.581C161.786 210.242 162.885 218.873 164.342 227.442C164.515 228.459 162.987 229.041 162.129 228.468C161.271 227.895 160.996 226.779 160.801 225.765C159.379 218.381 158.597 210.874 158.467 203.355C156.656 203.711 155.387 205.467 155.02 207.275C154.654 209.084 155.007 210.952 155.36 212.763L158.766 230.255C159.297 232.982 159.829 235.799 159.243 238.515C156.989 228.226 155.177 217.84 153.814 207.396C136.522 217.97 114.241 219.936 95.3645 212.554C91.2417 210.942 87.1474 208.805 84.4244 205.315C82.2793 202.566 81.1347 199.152 80.5351 195.717C78.4054 183.517 82.7696 171.072 88.6931 160.196C88.8474 159.912 89.0032 159.628 89.1595 159.343C91.2793 155.477 93.488 151.448 93.3191 147.075C93.3079 146.786 93.2876 146.491 93.2672 146.195C93.1733 144.833 93.0768 143.433 93.852 142.354C94.892 144.246 95.2881 146.485 94.9604 148.618C112.862 147.848 130.79 147.693 148.703 148.153C148.912 148.977 147.718 149.359 146.869 149.347C130.153 149.097 113.429 149.382 96.7307 150.2C96.2019 150.226 95.6468 150.261 95.1985 150.542C94.7269 150.839 94.4521 151.358 94.1987 151.854C89.4596 161.127 84.7049 170.534 82.4142 180.693C81.2362 185.917 80.7851 191.634 83.1994 196.414C84.1153 198.228 85.4108 199.829 86.8571 201.256C94.6219 208.915 106.249 211.263 117.154 211.08C124.114 210.963 131.058 209.962 137.768 208.11C144.882 206.146 151.976 203.05 156.831 197.493C159.683 194.23 161.621 190.278 163.318 186.29C166.558 178.677 169.044 170.742 170.726 162.64C171.78 162.862 171.795 164.351 171.551 165.4C168.544 178.375 165.048 192.205 155.142 201.108C146.195 209.149 133.587 211.643 121.577 212.316C114.639 212.704 107.592 212.583 100.872 210.814C94.152 209.046 87.7358 205.508 83.4697 200.023C84.7139 204.767 88.9286 208.153 93.3165 210.344C104.838 216.097 118.442 215.793 131.164 213.793C139.638 212.461 148.336 210.274 154.931 204.789C160.568 200.1 164.16 193.403 166.864 186.587C169.858 179.043 171.934 171.135 173.033 163.094C173.718 162.661 174.225 163.871 174.138 164.676C172.656 178.458 167.376 191.812 159.032 202.881L160.448 216.232ZM152.436 239.799C151.701 238.558 151.228 237.163 151.056 235.73L150 239.309L147.334 229.144C147.128 228.355 146.624 227.368 145.827 227.538C145.052 227.703 144.965 228.767 145.08 229.551C145.661 233.494 146.768 237.36 148.364 241.012L145.529 238.525C145.392 239.709 145.703 240.94 146.388 241.916C144.912 240.829 142.931 240.458 141.161 240.938C142.426 242.695 144.143 244.124 146.101 245.048L143.706 241.705C145.642 242.822 147.67 243.78 149.763 244.565L147.734 242.02L150.241 242.715C148.323 238.35 146.368 233.818 146.414 229.05C147.141 232.929 148.204 236.745 149.588 240.44C149.822 241.066 150.083 241.714 150.583 242.158C151.083 242.602 151.894 242.77 152.418 242.354C152.825 242.03 152.944 241.473 153.036 240.961L154.165 234.698L155.406 242.465C156.346 240.089 159.405 239.494 161.96 239.478C165.334 239.457 168.734 239.829 172.124 240.199H172.124C178.236 240.868 184.319 241.533 190.175 239.889C190.003 240.794 189.702 241.675 189.284 242.497C194.009 241.809 198.79 241.507 203.565 241.595C205.581 241.632 207.603 241.738 209.625 241.844H209.625H209.625H209.626H209.626H209.626H209.626H209.627H209.627H209.627C214.973 242.125 220.32 242.406 225.558 241.413L190.792 241.107C191.445 241.069 191.945 240.31 191.723 239.695C191.5 239.08 190.63 238.817 190.104 239.206C189.762 238.119 188.225 237.635 187.322 238.331C187.845 236.717 188.88 235.274 190.24 234.261C188.705 234.179 187.146 234.649 185.912 235.566L189.652 218.259C189.336 217.987 188.808 218.17 188.575 218.515C188.344 218.857 188.318 219.292 188.293 219.705L188.293 219.718C187.942 225.628 185.859 231.424 182.366 236.204L180.994 232.236L179.028 236.976C178.137 236.286 176.874 236.111 175.829 236.535C176.096 237.548 176.907 238.401 177.906 238.719L178.371 237.472L181.442 239.529C180.268 238.299 180.014 236.287 180.845 234.803L182.703 237.921L186.305 230.796C186.325 233.657 185.099 236.361 183.898 238.957C185.204 237.934 186.327 236.677 187.197 235.265C188.037 236.752 187.119 238.746 185.658 239.632C184.198 240.517 182.391 240.565 180.684 240.493C178.08 240.383 175.457 240.056 172.836 239.729L172.836 239.729C166.951 238.996 161.082 238.264 155.491 239.997L154.685 232.564C153.454 234.789 152.683 237.268 152.436 239.799ZM187.512 239.998C187.385 239.847 187.386 239.605 187.514 239.454L187.615 239.493C187.786 239.084 188.504 239.118 188.636 239.54C188.304 239.779 187.916 239.938 187.512 239.998ZM206.506 161.025C202.457 158.978 197.638 159.53 193.143 160.146C191.873 160.32 190.579 160.503 189.428 161.069C188.278 161.634 187.276 162.658 187.077 163.925C176.1 162.554 165.581 157.722 157.39 150.288C155.612 148.675 153.797 146.377 154.597 144.113C154.848 143.402 155.337 142.801 155.846 142.244C159.665 138.056 164.931 135.538 170.057 133.121C164.247 133.63 158.673 136.456 154.827 140.841C153.946 141.846 153.134 142.969 152.83 144.27C152.081 147.484 154.577 150.5 157.076 152.656C165.048 159.537 175.075 164.005 185.522 165.332C186.148 165.411 186.18 166.292 186.123 166.921C185.869 169.718 187.393 172.448 189.507 174.298C191.621 176.149 194.268 177.26 196.895 178.255C205.029 181.336 213.472 183.605 222.055 185.018C222.622 185.112 223.401 185.067 223.521 184.505C221.54 183.195 219.156 182.696 216.825 182.207L216.447 182.128C210.537 180.884 204.706 179.264 199.001 177.28C196.661 176.466 194.315 175.577 192.274 174.172C190.234 172.766 188.501 170.781 187.848 168.39C187.526 167.21 187.963 165.448 189.178 165.596C194.123 166.201 199.204 166.798 204.033 165.572C205.126 165.294 206.265 164.875 206.931 163.966C207.597 163.056 207.512 161.533 206.506 161.025ZM194.032 164.293C192.334 164 190.6 163.922 188.883 164.06C189.717 162.476 191.755 162.058 193.53 161.817C197.386 161.292 201.403 160.779 205.098 162.002C205.342 162.083 205.603 162.186 205.735 162.407C205.909 162.697 205.782 163.092 205.535 163.324C205.288 163.555 204.951 163.66 204.625 163.752C201.192 164.711 197.545 164.897 194.032 164.293ZM137.858 244.242C140.699 244.163 143.557 244.791 146.103 246.054C145.422 247.032 144.054 247.169 142.864 247.214L111.744 248.395C111.459 248.36 111.405 247.92 111.607 247.715C111.809 247.511 112.125 247.485 112.412 247.471L142.791 245.989C141.036 245.828 139.323 245.222 137.858 244.242ZM77.9694 141.324C77.5259 143.445 79.3202 145.707 81.481 145.868C77.9475 151.193 71.5827 153.821 65.4672 155.676C61.6504 156.834 57.4165 157.784 53.7779 156.151C53.3263 156.427 53.8078 157.106 54.2846 157.336C57.8255 159.042 62.0237 158.091 65.7901 156.967C71.3137 155.319 77.0073 153.188 80.7658 148.818C80.9195 148.639 81.0726 148.455 81.2267 148.27L81.227 148.27L81.2272 148.269L81.2275 148.269C82.1949 147.106 83.2036 145.894 84.6581 145.625C89.3407 144.759 93.2407 141.826 97.0944 138.928C97.9685 138.271 98.8402 137.615 99.7181 136.986C105.054 133.162 110.972 130.151 117.205 128.091C117.755 127.909 118.425 127.571 118.376 126.993C110.648 127.703 103.893 132.311 97.6651 136.94L97.4574 137.094C93.2245 140.241 88.8012 143.53 83.5929 144.309C85.2942 142.968 84.935 139.867 83.0156 138.862C81.0961 137.857 78.4128 139.203 77.9694 141.324ZM79.4115 142.62C79.0642 141.591 79.6003 140.367 80.553 139.846C80.8235 139.698 81.126 139.599 81.4343 139.599C82.4517 139.598 83.1947 140.686 83.2014 141.704C83.2081 142.721 82.6923 143.659 82.1911 144.545C81.0186 144.365 79.7909 143.743 79.4115 142.62ZM168.995 97.5031C169.715 95.796 171.142 94.2821 172.963 93.9356C173.552 93.8235 173.533 92.8525 173.017 92.5472C172.501 92.2419 171.838 92.4224 171.297 92.6801C168.775 93.8803 167.183 96.5224 166.559 99.2445C165.936 101.967 166.142 104.802 166.352 107.587L167.467 122.389C167.504 122.892 167.551 123.421 167.831 123.841C168.402 124.696 169.626 124.722 170.652 124.657L175.845 124.327C174.691 123.423 173.142 123.042 171.7 123.309C170.858 123.464 170.012 122.909 169.566 122.178C169.119 121.447 168.989 120.572 168.878 119.723C168.154 114.168 167.889 108.553 168.085 102.954C168.15 101.102 168.275 99.2102 168.995 97.5031ZM182.254 228.895C181.959 229.109 181.664 228.622 181.621 228.26C179.614 211.391 179.311 194.371 179.011 177.386L178.808 165.935C178.802 165.609 178.807 165.252 179.017 165.002C179.378 164.571 180.137 164.769 180.452 165.233C180.767 165.698 180.768 166.3 180.757 166.862C180.448 183.576 180.651 200.323 182.251 216.964C182.271 217.165 182.29 217.366 182.31 217.568L182.31 217.571C182.677 221.351 183.049 225.189 182.254 228.895ZM165.57 122.562C165.13 122.321 164.588 122.458 164.107 122.6C141.859 129.18 119.662 135.965 97.7912 143.709C97.3818 143.854 96.9136 144.063 96.8197 144.487C96.7203 144.936 97.143 145.365 97.5953 145.448C98.0476 145.531 98.5052 145.37 98.9368 145.211C120.855 137.148 143.102 129.982 165.605 123.737C166.089 123.603 166.01 122.804 165.57 122.562Z" fill="#00160A"/>
    <path fill-rule="evenodd" clip-rule="evenodd" d="M244.838 223.218C244.32 223.446 243.759 223.658 243.201 223.562C242.644 223.466 242.122 222.942 242.234 222.388C243.258 217.318 241.972 211.827 238.804 207.738C237.693 206.305 236.371 205.044 235.289 203.59C234.607 202.673 234.001 201.521 234.347 200.432C234.839 198.883 236.82 198.506 238.442 198.396C242.212 198.139 245.982 197.882 249.752 197.625C251.489 197.506 253.49 197.489 254.649 198.788C257.877 202.403 264.169 202.646 267.666 199.29C268.207 198.771 268.888 199.804 268.867 200.554C268.799 202.911 267.828 205.232 266.196 206.934C265.81 207.335 265.318 207.729 264.765 207.671C264.211 207.614 263.803 206.819 264.244 206.48C265.191 205.753 266.155 205.007 266.819 204.015C267.482 203.023 267.804 201.723 267.352 200.618C264.916 203.699 262.458 206.761 259.976 209.805C255.673 215.082 251.072 220.48 244.838 223.218ZM251.638 207.69C251.019 207.861 250.358 207.729 249.74 207.555C245.29 206.297 241.191 202.821 236.639 203.634C241.946 207.909 244.764 215.076 243.789 221.82C247.286 221.071 250.048 218.461 252.524 215.881C256.19 212.063 259.671 208.067 262.95 203.912C260.593 203.892 258.245 203.212 256.242 201.969C253.768 202.582 254.094 207.01 251.638 207.69ZM254.869 200.669C253.395 198.932 250.746 198.985 248.476 199.185C245.516 199.445 242.555 199.705 239.594 199.965C238.392 200.071 237.011 200.282 236.385 201.313C241.509 202.386 246.505 204.071 251.233 206.32C251.841 204.411 253.059 202.7 254.666 201.502C254.847 201.367 255.053 201.194 255.029 200.97C255.017 200.856 254.944 200.757 254.869 200.669V200.669Z" fill="#FFB61D"/>
    <path fill-rule="evenodd" clip-rule="evenodd" d="M35.3654 159.231C30.9059 157.448 25.5916 157.976 21.5711 160.604C21.1819 160.858 20.6223 160.575 20.4296 160.151C20.2369 159.728 20.309 159.236 20.4076 158.782C21.6916 152.862 26.8069 148.332 32.4956 146.25C38.1843 144.169 44.4067 144.163 50.4538 144.519C51.0538 144.554 51.681 144.601 52.1928 144.916C52.7046 145.231 53.049 145.905 52.7939 146.449C50.4151 151.524 48.6232 156.874 47.4653 162.357C47.2775 163.246 46.3578 163.836 45.452 163.91C44.5463 163.985 43.6587 163.65 42.8367 163.262C40.275 162.054 37.9951 160.283 35.3654 159.231ZM35.8752 153.241C35.4777 153.564 34.8565 153.393 34.4826 153.044C34.1086 152.694 33.8955 152.21 33.6015 151.79C32.0248 149.541 28.4065 149.728 26.2617 151.444C24.1169 153.16 23.0791 155.872 22.134 158.451C28.4262 155.718 36.1762 156.698 41.5891 160.913C42.3282 161.488 43.0615 162.137 43.9716 162.358C44.8817 162.58 46.0281 162.182 46.2586 161.274C47.4901 156.424 49.0076 151.647 50.8007 146.975C47.3602 151.252 40.135 149.78 35.8752 153.241ZM34.5061 150.657C34.8594 151.101 35.5009 151.218 36.0594 151.118C36.6179 151.018 37.1253 150.74 37.6456 150.514C39.4372 149.735 41.4214 149.561 43.3422 149.205C45.2629 148.849 47.244 148.246 48.5961 146.837C45.5454 146.827 42.4947 146.818 39.4439 146.809C36.3781 146.8 33.0742 146.865 30.6113 148.69C32.1106 148.745 33.5717 149.483 34.5061 150.657Z" fill="#FFB61D"/>
    <path fill-rule="evenodd" clip-rule="evenodd" d="M178.637 158.822C178.63 156.139 178.622 153.455 178.615 150.772C178.613 150.001 178.611 149.231 178.609 148.46C178.607 147.929 178.697 147.264 179.202 147.098C179.584 146.973 180.004 147.248 180.183 147.608C180.361 147.968 180.359 148.388 180.353 148.789C180.297 152.534 180.242 156.279 180.186 160.024C180.178 160.562 180.088 161.225 179.583 161.414C178.742 160.937 178.639 159.789 178.637 158.822H178.637Z" fill="#00160A"/>
    <path fill-rule="evenodd" clip-rule="evenodd" d="M173.279 156.338C172.891 156.509 172.691 155.869 172.751 155.449C172.966 153.946 173.181 152.44 173.546 150.967C173.774 150.05 174.102 149.085 174.859 148.52C175.617 147.955 176.918 148.054 177.288 148.923C177.468 149.344 177.393 149.825 177.311 150.276C176.801 153.063 176.114 155.819 175.256 158.519C175.219 158.634 175.179 158.754 175.093 158.837C174.881 159.039 174.5 158.903 174.354 158.65C174.208 158.396 174.227 158.084 174.25 157.792C174.599 157.767 174.761 157.356 174.845 157.017C175.187 155.63 175.529 154.243 175.871 152.857C176.138 151.778 176.38 150.549 175.761 149.626C175.125 150.018 174.886 150.81 174.696 151.533C174.315 152.988 173.934 154.442 173.553 155.896C173.508 156.07 173.444 156.266 173.279 156.338L173.279 156.338Z" fill="#00160A"/>
</svg>
