<?xml version="1.0" standalone="no"?>
<!DOCTYPE svg PUBLIC "-//W3C//DTD SVG 20010904//EN"
 "http://www.w3.org/TR/2001/REC-SVG-20010904/DTD/svg10.dtd">
<svg version="1.0" xmlns="http://www.w3.org/2000/svg"
 width="1080.000000pt" height="1080.000000pt" viewBox="0 0 1080.000000 1080.000000"
 preserveAspectRatio="xMidYMid meet">

<g transform="translate(0.000000,1080.000000) scale(0.100000,-0.100000)"
fill="#ffffff" stroke="none">
<path d="M398 10786 c-56 -8 -84 -18 -102 -35 -14 -13 -41 -33 -60 -45 -50
-30 -131 -129 -145 -179 -7 -23 -23 -58 -34 -77 l-22 -35 0 -4960 0 -4960 26
-55 c15 -30 32 -71 39 -91 11 -31 72 -101 146 -169 11 -11 63 -34 115 -52 l94
-33 4915 0 4915 0 80 28 c97 34 191 105 240 182 19 30 39 56 44 59 36 23 36
-24 36 5081 0 4069 -2 4953 -13 5012 -15 81 -37 117 -123 202 -78 77 -113 102
-173 120 -46 14 -530 16 -4976 17 -3727 2 -4944 -1 -5002 -10z m6531 -947 c31
-11 81 -24 111 -29 30 -6 66 -18 80 -28 14 -10 48 -26 75 -36 28 -9 75 -35
105 -57 67 -49 205 -193 227 -234 8 -16 24 -39 34 -50 10 -11 25 -37 33 -57 9
-20 27 -53 40 -72 13 -20 27 -59 31 -89 4 -28 17 -92 30 -142 16 -65 25 -136
30 -252 4 -89 10 -178 15 -197 13 -59 83 -150 191 -252 57 -53 145 -139 194
-192 82 -87 195 -191 289 -267 50 -40 68 -43 291 -51 105 -3 206 -10 225 -15
207 -52 278 -81 411 -170 71 -48 174 -151 216 -216 18 -28 37 -54 42 -57 5 -4
15 -23 21 -44 7 -20 26 -58 42 -84 19 -30 32 -69 38 -108 5 -34 16 -72 24 -85
38 -58 41 -250 5 -331 -10 -22 -23 -71 -29 -110 -7 -40 -22 -84 -36 -104 -13
-19 -30 -55 -38 -78 -9 -24 -25 -54 -35 -65 -11 -12 -41 -47 -68 -78 -26 -31
-70 -74 -98 -97 -27 -23 -66 -54 -85 -70 -19 -16 -50 -34 -68 -40 -19 -6 -46
-22 -62 -36 -19 -15 -49 -27 -82 -31 -29 -4 -75 -19 -103 -34 l-50 -26 -415
-1 c-415 0 -528 -7 -624 -39 -57 -18 -86 -24 -198 -35 -54 -5 -123 -19 -155
-30 -32 -11 -115 -31 -185 -44 -69 -13 -139 -31 -154 -39 -33 -17 -122 -37
-163 -37 -15 0 -50 -12 -77 -26 -27 -14 -76 -30 -109 -35 -33 -6 -87 -23 -120
-38 -33 -16 -78 -32 -100 -36 -22 -3 -56 -17 -75 -29 -19 -12 -57 -28 -84 -35
-27 -6 -70 -23 -97 -36 -26 -14 -82 -34 -124 -46 -42 -11 -91 -29 -108 -39
-18 -10 -50 -22 -72 -25 -22 -4 -57 -18 -77 -32 -20 -14 -56 -29 -80 -34 -23
-6 -62 -23 -85 -38 -24 -16 -63 -32 -87 -35 -25 -4 -61 -18 -80 -31 -20 -13
-55 -29 -78 -35 -24 -6 -59 -22 -79 -35 -20 -13 -57 -30 -84 -39 -26 -9 -66
-27 -89 -40 -22 -14 -61 -30 -86 -36 -24 -7 -57 -22 -72 -35 -15 -13 -38 -27
-50 -30 -13 -4 -36 -17 -53 -30 -16 -12 -51 -31 -77 -43 -27 -11 -48 -25 -48
-30 0 -5 -14 -15 -32 -23 -17 -7 -53 -28 -79 -46 -27 -18 -52 -33 -56 -33 -5
0 -29 -17 -55 -37 -25 -21 -67 -54 -93 -73 -133 -100 -229 -201 -284 -300 -19
-35 -53 -180 -66 -275 -6 -50 -2 -74 35 -239 15 -67 30 -104 63 -155 45 -67
119 -143 172 -176 17 -10 41 -29 55 -41 14 -12 42 -27 63 -34 21 -6 50 -22 65
-35 15 -13 48 -28 72 -35 25 -6 54 -20 66 -31 11 -10 45 -26 75 -35 30 -9 68
-25 86 -35 17 -11 59 -29 93 -40 35 -11 74 -29 89 -39 14 -11 48 -24 75 -30
27 -6 67 -21 90 -34 22 -13 67 -29 98 -36 31 -6 68 -20 82 -31 14 -11 58 -27
98 -35 40 -8 88 -25 106 -36 22 -13 63 -24 120 -30 48 -5 121 -18 162 -29 159
-42 274 -40 510 6 131 25 213 20 383 -25 89 -24 167 -51 187 -65 19 -13 48
-29 64 -35 16 -6 45 -23 63 -38 67 -53 215 -207 235 -246 11 -21 28 -48 38
-58 10 -11 23 -39 29 -62 6 -23 20 -55 33 -71 16 -20 26 -54 34 -114 7 -47 17
-119 23 -159 9 -57 8 -88 -3 -145 -8 -40 -18 -99 -21 -132 -5 -38 -16 -73 -31
-95 -13 -20 -31 -60 -39 -88 -9 -29 -22 -55 -30 -58 -7 -3 -23 -25 -34 -49
-26 -56 -178 -206 -235 -233 -24 -12 -46 -28 -50 -37 -3 -8 -27 -25 -53 -36
-27 -11 -55 -27 -63 -34 -8 -8 -50 -23 -93 -35 -43 -12 -93 -27 -110 -35 -51
-20 -168 -27 -263 -14 -49 6 -94 15 -99 19 -6 5 -44 18 -84 29 -41 11 -81 27
-90 35 -9 8 -36 22 -61 31 -25 10 -54 28 -65 40 -11 12 -35 30 -54 40 -51 26
-217 197 -241 249 -12 25 -28 50 -36 57 -8 6 -23 42 -34 79 -11 37 -27 73 -35
80 -7 6 -21 35 -31 63 -9 29 -24 61 -34 72 -10 11 -27 39 -39 62 -12 24 -25
43 -30 43 -4 0 -22 21 -40 48 -85 128 -94 140 -257 304 -127 129 -237 231
-291 270 -49 36 -104 79 -146 115 -20 18 -43 33 -50 33 -8 0 -22 9 -33 21 -10
12 -40 32 -66 45 -27 13 -48 29 -48 34 0 5 -21 21 -47 35 -27 14 -63 36 -81
48 -108 72 -130 84 -162 90 -19 4 -56 18 -81 31 -126 68 -466 78 -677 22 -29
-8 -59 -19 -66 -25 -7 -6 -41 -18 -77 -27 -35 -9 -74 -25 -87 -35 -13 -10 -47
-25 -76 -33 -29 -9 -60 -24 -70 -35 -9 -10 -38 -24 -64 -31 -26 -6 -66 -22
-88 -35 -23 -13 -81 -33 -130 -45 -49 -11 -114 -27 -144 -36 -43 -13 -100 -17
-270 -18 -192 0 -224 2 -301 22 -47 12 -123 29 -170 36 -54 9 -105 25 -143 45
-32 17 -66 31 -76 31 -10 0 -32 11 -48 25 -17 14 -45 31 -64 37 -18 6 -51 24
-72 39 -22 16 -46 29 -52 29 -7 0 -34 18 -61 40 -26 22 -64 52 -83 67 -77 61
-219 212 -298 315 -18 24 -44 57 -57 74 -14 17 -34 53 -46 80 -11 27 -27 56
-35 66 -9 9 -26 47 -39 85 -13 37 -32 88 -43 113 -11 25 -25 77 -31 116 -6 39
-21 93 -33 120 -22 47 -23 60 -23 309 0 248 1 262 22 310 13 28 30 86 38 129
8 44 23 95 33 115 11 20 29 66 41 103 13 37 27 71 33 74 5 3 18 27 29 52 11
24 31 59 45 76 25 31 41 53 107 151 64 95 301 315 386 359 17 9 31 21 31 26 0
5 22 21 49 35 27 13 52 29 55 34 4 5 37 19 74 32 37 12 83 30 103 41 19 10 73
28 120 39 46 12 97 28 112 36 39 20 299 36 487 30 123 -3 166 -9 210 -25 30
-11 99 -30 154 -42 139 -31 340 -123 409 -188 13 -12 27 -22 31 -22 9 0 108
-70 162 -114 18 -15 36 -26 42 -26 5 0 32 -15 59 -34 47 -32 131 -62 258 -92
151 -36 644 -26 773 15 34 11 119 24 190 30 93 8 149 17 194 34 35 13 110 34
167 47 57 12 122 30 145 40 23 10 74 23 113 28 41 6 88 20 107 32 19 11 65 27
102 35 37 8 80 23 95 34 15 11 49 25 76 31 26 6 66 22 88 35 22 12 60 28 85
35 25 6 76 27 114 46 39 19 77 34 85 34 9 0 36 12 61 26 25 15 69 35 99 45 30
11 62 26 70 33 9 8 42 24 73 36 32 12 60 25 63 31 4 5 31 21 61 35 30 14 54
29 54 34 0 4 24 18 54 30 30 12 62 30 71 40 9 10 37 28 63 40 48 21 85 45 157
99 89 67 129 97 148 108 11 6 29 20 41 32 11 11 46 41 76 67 50 42 88 81 180
181 17 18 30 37 30 44 0 6 14 30 31 53 37 52 64 196 55 289 -11 108 -24 126
-325 426 -272 274 -282 282 -368 323 l-88 43 -240 5 c-240 5 -240 5 -287 32
-25 16 -69 33 -97 39 -29 6 -64 21 -79 34 -16 13 -40 27 -54 30 -28 7 -97 61
-173 134 -66 65 -107 117 -135 171 -12 25 -28 52 -35 60 -8 8 -22 47 -33 85
-11 39 -30 90 -43 115 -23 43 -24 54 -24 235 0 189 0 191 28 244 15 30 32 73
37 96 20 90 157 282 269 378 31 27 66 57 78 68 13 12 46 30 75 41 29 11 67 28
83 38 17 10 66 25 110 35 44 9 89 22 100 28 57 31 223 29 314 -4z"/>
<path d="M6654 9660 c-64 -5 -104 -13 -133 -28 -23 -12 -67 -31 -98 -42 -31
-11 -68 -31 -83 -45 -14 -14 -31 -25 -37 -25 -19 0 -154 -154 -180 -205 -14
-27 -34 -60 -44 -73 -10 -13 -23 -49 -29 -80 -6 -31 -20 -86 -31 -121 -24 -80
-24 -171 0 -252 11 -35 24 -88 30 -118 17 -82 119 -252 185 -310 11 -9 35 -30
55 -47 55 -47 198 -112 267 -123 34 -5 82 -20 105 -32 40 -21 63 -24 240 -29
192 -7 197 -7 260 -37 35 -17 74 -34 87 -38 13 -4 38 -21 57 -38 18 -18 84
-79 145 -137 310 -292 464 -456 498 -533 13 -29 27 -54 31 -57 23 -15 32 -66
41 -227 7 -127 17 -205 34 -273 13 -52 27 -116 31 -142 3 -26 17 -62 30 -82
13 -19 32 -54 43 -78 21 -46 125 -163 182 -203 19 -14 58 -36 85 -50 28 -14
64 -36 82 -49 18 -13 53 -26 82 -29 27 -3 64 -13 82 -23 40 -20 129 -15 306
19 88 17 132 30 160 50 21 14 51 31 67 37 76 28 242 199 270 276 8 22 27 64
44 96 26 49 31 70 37 171 4 65 3 161 -3 221 -9 89 -15 114 -41 160 -17 29 -31
60 -31 69 0 8 -16 34 -35 57 -19 23 -35 45 -35 50 0 16 -93 111 -153 157 -34
26 -84 55 -111 65 -27 11 -67 28 -89 40 -32 16 -71 22 -186 29 -171 10 -214
16 -261 36 -19 8 -82 21 -139 28 -75 10 -109 19 -125 33 -11 11 -37 27 -56 35
-40 16 -614 586 -637 633 -9 16 -26 45 -38 64 -13 19 -28 62 -34 96 -6 33 -20
85 -30 115 -14 39 -21 97 -25 209 -9 216 -15 255 -42 295 -13 19 -28 52 -33
72 -29 106 -231 305 -350 345 -30 10 -64 24 -75 32 -54 34 -198 48 -372 36z
m2634 -2360 c24 -27 50 -66 58 -86 9 -20 25 -50 36 -65 25 -34 47 -152 47
-254 0 -93 -22 -220 -41 -242 -9 -10 -27 -40 -41 -68 -14 -27 -45 -69 -69 -91
-37 -36 -47 -41 -76 -37 -19 3 -36 11 -38 18 -10 25 17 91 60 148 26 35 46 74
50 96 3 21 15 58 26 82 27 60 25 126 -6 223 -40 122 -46 136 -69 165 -12 14
-35 50 -51 79 -28 52 -29 53 -10 68 40 29 78 18 124 -36z"/>
<path d="M7813 6683 c-27 -44 -166 -175 -298 -283 -27 -23 -61 -50 -75 -62
-14 -11 -43 -32 -64 -46 -22 -13 -49 -33 -60 -43 -11 -11 -25 -19 -32 -19 -7
0 -26 -11 -42 -25 -17 -14 -55 -36 -85 -50 -30 -13 -58 -29 -62 -36 -4 -6 -31
-22 -59 -34 -29 -13 -58 -30 -66 -40 -7 -9 -29 -23 -49 -31 -20 -8 -45 -23
-56 -33 -11 -10 -42 -26 -69 -35 -27 -9 -57 -23 -66 -31 -9 -8 -43 -24 -75
-35 -32 -11 -66 -27 -75 -35 -9 -8 -41 -23 -71 -34 -30 -10 -71 -30 -92 -44
-21 -14 -58 -29 -83 -33 -26 -4 -59 -18 -80 -35 -20 -16 -49 -29 -63 -29 -43
0 -100 -20 -120 -41 -11 -12 -41 -23 -80 -30 -34 -5 -79 -20 -99 -33 -20 -13
-62 -29 -92 -36 -30 -7 -77 -22 -105 -35 -27 -13 -88 -30 -135 -40 -47 -9
-119 -27 -160 -40 -41 -14 -121 -29 -178 -35 -65 -6 -117 -17 -141 -30 -48
-24 -72 -27 -281 -40 -91 -6 -193 -17 -228 -25 -83 -20 -190 -20 -277 0 -104
23 -217 30 -244 15 l-23 -12 25 -26 c14 -15 33 -45 42 -67 9 -22 25 -49 35
-60 9 -11 25 -44 35 -74 10 -30 28 -69 40 -87 13 -19 24 -55 28 -87 3 -30 17
-79 30 -108 16 -35 28 -82 32 -131 4 -43 14 -85 21 -95 14 -17 16 -16 37 11
58 77 221 225 332 301 32 22 72 52 89 66 17 15 51 37 76 49 25 12 47 26 50 31
6 9 94 58 170 94 30 15 64 35 75 45 11 9 38 23 60 30 22 7 56 23 75 36 19 13
62 33 95 44 32 11 69 27 81 34 11 8 48 22 80 31 32 10 68 25 79 35 11 10 46
25 79 34 32 8 68 24 80 35 11 10 39 23 61 27 42 7 96 31 106 46 3 4 36 17 73
27 38 10 80 28 95 38 14 11 57 27 95 37 38 9 88 28 110 41 23 12 61 26 86 30
25 4 68 20 95 35 28 15 68 31 90 35 22 3 58 17 81 30 23 13 73 31 111 39 39 8
88 23 110 34 21 11 68 26 104 32 35 6 96 23 134 36 39 14 119 33 180 44 60 11
132 29 160 39 28 10 92 24 144 30 54 7 110 20 134 32 27 14 73 24 146 30 58 5
150 14 204 20 93 11 98 13 93 33 -3 11 -6 27 -6 34 0 7 -26 41 -57 77 -72 79
-103 120 -124 159 -59 109 -69 132 -69 153 0 13 -6 38 -14 56 -13 33 -62 87
-77 87 -5 0 -16 -12 -26 -27z"/>
<path d="M2590 5847 c-3 -3 -55 -11 -115 -17 -147 -15 -242 -34 -314 -64 -32
-14 -78 -28 -101 -32 -23 -4 -54 -17 -69 -29 -14 -13 -44 -30 -65 -39 -21 -9
-53 -28 -72 -43 -18 -16 -54 -44 -79 -63 -142 -108 -223 -187 -310 -299 -22
-29 -52 -66 -66 -84 -14 -18 -32 -50 -39 -72 -7 -22 -21 -52 -32 -67 -10 -15
-30 -58 -43 -95 -12 -38 -32 -88 -43 -113 -11 -25 -27 -99 -36 -165 -9 -66
-21 -151 -27 -189 -7 -46 -7 -94 0 -145 35 -274 45 -340 58 -376 9 -22 28 -76
43 -121 16 -44 40 -98 54 -119 14 -21 26 -43 26 -50 0 -7 16 -36 35 -64 19
-28 35 -53 35 -57 0 -22 271 -301 320 -331 17 -9 30 -21 30 -25 0 -4 19 -17
41 -29 23 -11 60 -34 82 -50 22 -16 48 -29 57 -29 9 0 36 -13 61 -29 24 -16
64 -35 89 -41 25 -7 63 -22 85 -35 28 -16 64 -25 121 -29 45 -4 106 -14 135
-21 74 -20 318 -20 396 0 32 8 99 18 150 23 68 7 98 15 118 30 14 11 50 26 80
32 30 6 69 22 88 34 19 13 51 29 71 36 20 6 49 22 64 34 15 13 38 29 52 36 30
16 75 51 138 108 26 23 50 42 54 42 11 0 218 238 218 250 0 6 16 33 35 61 19
28 35 56 35 63 0 6 11 27 24 46 12 19 29 53 36 75 7 22 25 63 40 90 18 32 30
73 35 115 4 36 19 92 34 125 25 58 26 66 25 240 0 159 -3 187 -22 240 -13 33
-29 102 -37 154 -9 64 -21 104 -35 123 -12 16 -28 52 -37 81 -8 29 -23 61 -34
72 -10 11 -25 38 -32 60 -40 110 -189 294 -316 390 -48 36 -76 58 -176 138
-17 14 -48 32 -70 41 -22 9 -49 26 -61 37 -12 11 -49 27 -83 35 -34 8 -75 21
-91 29 -16 8 -55 22 -87 30 -97 26 -460 65 -473 52z m33 -218 c20 -5 44 -21
53 -34 15 -23 15 -27 1 -48 -17 -26 -91 -50 -187 -62 -150 -19 -291 -70 -405
-148 -22 -15 -44 -27 -49 -27 -10 0 -67 -49 -136 -116 -78 -75 -107 -108 -123
-140 -9 -17 -23 -36 -31 -43 -8 -7 -25 -38 -36 -69 -12 -32 -28 -64 -36 -73
-17 -19 -39 -117 -55 -249 -15 -127 -52 -200 -100 -200 -19 0 -49 66 -49 109
0 136 46 316 110 431 11 19 31 59 45 87 15 29 32 56 39 60 8 5 22 22 32 38 48
77 269 296 327 324 26 13 47 27 47 31 0 5 26 18 58 30 31 12 75 30 97 40 36
17 105 32 280 58 33 5 65 10 70 11 6 0 27 -4 48 -10z"/>
<path d="M4176 3718 c-9 -12 -16 -28 -16 -34 0 -7 -11 -26 -25 -42 -14 -17
-32 -50 -40 -73 -9 -24 -24 -53 -34 -64 -10 -11 -24 -31 -31 -45 -7 -14 -35
-50 -61 -80 -47 -55 -80 -130 -56 -130 7 1 39 7 72 15 76 19 165 19 235 1 30
-8 87 -19 125 -25 94 -16 124 -26 230 -78 129 -64 199 -103 203 -114 2 -5 25
-21 50 -35 68 -36 111 -66 246 -174 25 -19 75 -57 113 -85 37 -27 70 -54 72
-58 2 -5 17 -17 33 -27 35 -21 220 -192 292 -270 99 -106 111 -119 151 -166
22 -25 53 -60 69 -78 15 -17 36 -47 46 -67 10 -19 25 -41 33 -48 8 -6 21 -26
28 -44 7 -18 23 -45 36 -60 12 -15 27 -47 34 -69 6 -23 21 -55 34 -72 13 -17
28 -49 34 -72 6 -22 24 -61 41 -85 16 -24 30 -49 30 -56 0 -17 77 -104 135
-152 28 -23 59 -50 70 -60 11 -10 40 -28 65 -41 24 -12 56 -31 70 -41 32 -23
157 -39 305 -39 148 0 241 15 285 44 19 13 52 29 72 36 21 6 56 27 79 46 22
19 45 34 49 34 9 0 108 116 156 184 18 24 35 59 39 77 4 19 21 63 38 99 28 59
31 76 35 182 6 160 -4 239 -34 284 -14 20 -28 50 -31 68 -7 38 -30 86 -42 86
-4 0 -20 21 -34 48 -24 44 -88 116 -149 170 -14 12 -50 34 -80 48 -29 14 -70
35 -91 46 -21 11 -84 27 -140 36 -94 14 -116 14 -272 -1 -93 -10 -230 -17
-303 -17 -151 0 -357 23 -417 46 -22 9 -73 22 -114 30 -41 8 -89 24 -108 35
-19 12 -65 27 -102 35 -37 7 -84 23 -104 37 -19 13 -57 27 -83 31 -27 3 -64
17 -84 30 -19 13 -64 32 -99 40 -35 9 -78 25 -95 35 -17 10 -56 26 -86 36 -30
10 -73 28 -96 41 -22 13 -62 30 -88 38 -26 8 -56 22 -65 30 -9 9 -36 22 -59
30 -23 9 -57 26 -75 39 -17 13 -46 30 -64 36 -18 7 -38 20 -44 28 -7 8 -29 23
-49 33 -21 11 -71 53 -113 94 -78 77 -130 150 -174 243 -14 29 -27 53 -29 53
-1 0 -10 -10 -18 -22z m3074 -2053 l29 -15 -19 -41 c-10 -23 -24 -48 -32 -55
-7 -7 -27 -26 -44 -43 -17 -16 -55 -42 -85 -56 -30 -14 -65 -32 -78 -39 -48
-28 -186 -40 -306 -27 -96 11 -121 18 -200 57 -66 32 -100 56 -128 89 -37 43
-38 47 -24 69 24 36 57 39 118 11 30 -14 65 -34 79 -44 25 -20 201 -61 257
-61 53 0 202 37 228 56 15 10 42 28 60 39 19 12 45 33 59 48 29 31 45 33 86
12z"/>
</g>
</svg>
